<?xml version="1.0" encoding="utf-8"?>
<!-- Generator: Adobe Illustrator 21.1.0, SVG Export Plug-In . SVG Version: 6.00 Build 0)  -->
<svg version="1.1" id="Layer_1" xmlns="http://www.w3.org/2000/svg" xmlns:xlink="http://www.w3.org/1999/xlink" x="0px" y="0px"
	 viewBox="0 0 1000 1000" style="enable-background:new 0 0 1000 1000;" xml:space="preserve">
<style type="text/css">
	.st0{fill:#12443E;}
	.st1{clip-path:url(#SVGID_2_);}
	.st2{fill:#006837;}
	.st3{fill:#C2DCD3;}
</style>
<rect class="st0" width="1000" height="1000"/>
<g>
	<defs>
		<rect id="SVGID_1_" width="1000" height="1000"/>
	</defs>
	<clipPath id="SVGID_2_">
		<use xlink:href="#SVGID_1_"  style="overflow:visible;"/>
	</clipPath>
	<g class="st1">
		<path class="st2" d="M500-275C72-275-275,72-275,500s347,775,775,775s775-347,775-775S928-275,500-275z M909.7,516.6H555.8
			c-1.1,3.9-2.6,7.4-4.5,11l105.6,105.6c67.3,7.1,130.5,37.2,178.4,85.3c49.3,49.3,79.7,114.4,85.9,183.7c0.2,1.1,0.2,2.3,0,3.4
			c0,0.2,0,0.3,0,0.5c-0.8,8.7-8.1,15.2-16.6,15.2c-0.5,0-0.9,0-1.4,0c-69.6-5.9-135.2-36.4-184.4-85.9
			c-48.1-48-78.1-111.1-85.3-178.4L527.7,551.2c-3.4,1.9-7.1,3.4-11,4.5v353.9c0,9.1-7.4,16.6-16.6,16.6c-9.1,0-16.6-7.4-16.6-16.6
			V555.8c-3.9-1.1-7.6-2.6-11-4.5L366.7,656.7c-7.1,67.3-37.2,130.5-85.3,178.6c-49.4,49.4-115,80-184.5,85.9c-0.5,0-0.9,0-1.4,0
			c-8.5,0-15.8-6.5-16.6-15.2c0-0.2,0-0.2,0-0.3c-0.2-1.1-0.2-2.3,0-3.4c6-69.3,36.6-134.5,85.9-183.7
			c48.1-48,111.1-78.1,178.4-85.3L449,527.7c-1.9-3.4-3.4-7.1-4.5-11H90.3c-9.1,0-16.6-7.4-16.6-16.6c0-9.1,7.4-16.6,16.6-16.6
			h353.9c1.1-3.9,2.6-7.6,4.5-11L343.3,366.7c-67.3-7.1-130.5-37.2-178.4-85.3C115.6,232.2,85.2,166.9,79,97.8
			c-0.2-1.1-0.2-2.3,0-3.4c0-0.2,0-0.3,0-0.5c0.8-9.1,8.8-16,18-15.2c69.6,5.9,135,36.4,184.5,85.9c48,48,78.1,111.1,85.3,178.4
			l105.6,105.6c3.4-1.9,7.1-3.4,11-4.5V90.3c0-9.1,7.4-16.6,16.6-16.6c9.1,0,16.6,7.4,16.6,16.6v353.9c3.9,1.1,7.4,2.6,11,4.5
			l105.7-105.6c7.1-67.3,37.2-130.5,85.3-178.4c49.4-49.4,115-80,184.5-85.9c9.1-0.8,17.2,6,18,15.2c0,0.2,0,0.3,0,0.5
			c0.2,1.1,0.2,2.2,0,3.4c-6,69.3-36.6,134.5-85.9,183.7c-48,48.1-111.1,78.1-178.4,85.3L551.2,472.3c1.9,3.4,3.4,7.1,4.5,11h353.9
			c9.1,0,16.6,7.4,16.6,16.6C926.1,509,918.8,516.6,909.7,516.6z"/>
		<circle class="st3" cx="500" cy="500" r="29.1"/>
		<path class="st3" d="M114.5,885.3c54.1-9,104.3-34.7,143.4-73.6c39.1-39.1,64.8-89.3,73.6-143.4c-54.1,9-104.3,34.7-143.4,73.6
			C149.2,781,123.5,831.2,114.5,885.3z"/>
		<path class="st3" d="M885.3,114.5c-54.1,9-104.3,34.7-143.4,73.6c-39.1,39.1-64.8,89.3-73.6,143.4c54.1-9,104.3-34.7,143.4-73.6
			S876.5,168.6,885.3,114.5z"/>
		<path class="st3" d="M114.7,114.5c9,54.1,34.7,104.3,73.6,143.4c39.1,39.1,89.3,64.8,143.4,73.6c-9-54.1-34.7-104.3-73.6-143.4
			C219,149.2,168.6,123.5,114.7,114.5z"/>
		<path class="st3" d="M500-275C72-275-275,72-275,500s347,775,775,775s775-347,775-775S928-275,500-275z M909.7,516.6H555.8
			c-1.1,3.9-2.6,7.4-4.5,11l105.6,105.6c67.3,7.1,130.5,37.2,178.4,85.3c49.3,49.3,79.7,114.4,85.9,183.7c0.2,1.1,0.2,2.3,0,3.4
			c0,0.2,0,0.3,0,0.5c-0.8,8.7-8.1,15.2-16.6,15.2c-0.5,0-0.9,0-1.4,0c-69.6-5.9-135.2-36.4-184.4-85.9
			c-48.1-48-78.1-111.1-85.3-178.4L527.7,551.2c-3.4,1.9-7.1,3.4-11,4.5v353.9c0,9.1-7.4,16.6-16.6,16.6c-9.1,0-16.6-7.4-16.6-16.6
			V555.8c-3.9-1.1-7.6-2.6-11-4.5L366.7,656.7c-7.1,67.3-37.2,130.5-85.3,178.6c-49.4,49.4-115,80-184.5,85.9c-0.5,0-0.9,0-1.4,0
			c-8.5,0-15.8-6.5-16.6-15.2c0-0.2,0-0.2,0-0.3c-0.2-1.1-0.2-2.3,0-3.4c6-69.3,36.6-134.5,85.9-183.7
			c48.1-48,111.1-78.1,178.4-85.3L449,527.7c-1.9-3.4-3.4-7.1-4.5-11H90.3c-9.1,0-16.6-7.4-16.6-16.6c0-9.1,7.4-16.6,16.6-16.6
			h353.9c1.1-3.9,2.6-7.6,4.5-11L343.3,366.7c-67.3-7.1-130.5-37.2-178.4-85.3C115.6,232.2,85.2,166.9,79,97.8
			c-0.2-1.1-0.2-2.3,0-3.4c0-0.2,0-0.3,0-0.5c0.8-9.1,8.8-16,18-15.2c69.6,5.9,135,36.4,184.5,85.9c48,48,78.1,111.1,85.3,178.4
			l105.6,105.6c3.4-1.9,7.1-3.4,11-4.5V90.3c0-9.1,7.4-16.6,16.6-16.6c9.1,0,16.6,7.4,16.6,16.6v353.9c3.9,1.1,7.4,2.6,11,4.5
			l105.7-105.6c7.1-67.3,37.2-130.5,85.3-178.4c49.4-49.4,115-80,184.5-85.9c9.1-0.8,17.2,6,18,15.2c0,0.2,0,0.3,0,0.5
			c0.2,1.1,0.2,2.2,0,3.4c-6,69.3-36.6,134.5-85.9,183.7c-48,48.1-111.1,78.1-178.4,85.3L551.2,472.3c1.9,3.4,3.4,7.1,4.5,11h353.9
			c9.1,0,16.6,7.4,16.6,16.6C926.1,509,918.8,516.6,909.7,516.6z"/>
		<path class="st3" d="M885.5,885.3c-9-54.1-34.7-104.3-73.6-143.4c-39.1-39.1-89.3-64.8-143.4-73.6c9,54.1,34.7,104.3,73.6,143.4
			C781,850.8,831.4,876.5,885.5,885.3z"/>
	</g>
</g>
</svg>
