<?xml version="1.0" encoding="utf-8"?>
<!-- Generator: Adobe Illustrator 21.1.0, SVG Export Plug-In . SVG Version: 6.00 Build 0)  -->
<svg version="1.1" id="Layer_1" xmlns="http://www.w3.org/2000/svg" xmlns:xlink="http://www.w3.org/1999/xlink" x="0px" y="0px"
	 viewBox="0 0 1024 1024" style="enable-background:new 0 0 1024 1024;" xml:space="preserve">
<style type="text/css">
	.st0{fill:#415E72;}
	.st1{fill:#12443E;}
	.st2{fill:#FFC300;}
	.st3{fill:#BF8D00;}
	.st4{fill:#547282;}
</style>
<g>
	<path class="st0" d="M978.7,535.3C978.7,277.8,769.9,69,512.5,69S46.2,277.8,46.2,535.3 M76.1,535.3
		c0-241.1,195.5-436.4,436.4-436.4c241.1,0,436.4,195.5,436.4,436.4"/>
	<g>
		<circle class="st1" cx="512.5" cy="559.4" r="14.8"/>
		<path class="st1" d="M315.7,756.2c27.5-4.5,53.2-17.8,73.1-37.5c19.9-19.9,32.9-45.6,37.5-73.1c-27.5,4.5-53.2,17.8-73.1,37.5
			C333.3,703,320.3,728.7,315.7,756.2z"/>
		<path class="st1" d="M709.2,362.7c-27.5,4.5-53.2,17.8-73.1,37.5c-19.9,19.9-32.9,45.6-37.5,73.1c27.5-4.5,53.2-17.8,73.1-37.5
			C691.6,416.2,704.6,390.5,709.2,362.7z"/>
		<path class="st1" d="M315.7,362.7c4.5,27.5,17.8,53.2,37.5,73.1c19.9,19.9,45.6,32.9,73.1,37.5c-4.5-27.5-17.8-53.2-37.5-73.1
			C368.9,380.6,343.2,367.3,315.7,362.7z"/>
		<path class="st1" d="M512.5,163.9C294,163.9,116.9,341,116.9,559.4S294,955,512.5,955S908,777.9,908,559.4
			S730.9,163.9,512.5,163.9z M721.6,567.9H540.9c-0.6,2.1-1.2,3.9-2.4,5.7l53.8,53.8c34.4,3.6,66.5,19,91,43.5
			c25.1,25.1,40.8,58.3,43.8,93.7c0,0.6,0,1.2,0,1.8v0.3c-0.3,4.5-4.2,7.9-8.5,7.9c-0.3,0-0.6,0-0.6,0c-35.7-3-68.9-18.7-94.3-43.8
			c-24.5-24.5-39.9-56.8-43.5-91l-54.1-54.1c-1.8,0.9-3.6,1.8-5.7,2.4v180.7c0,4.5-3.9,8.5-8.5,8.5c-4.5,0-8.5-3.9-8.5-8.5V588.2
			c-2.1-0.6-3.9-1.2-5.7-2.4l-54.1,53.8c-3.6,34.4-19,66.5-43.5,91.3c-25.4,25.4-58.6,40.8-94.3,43.8c-0.3,0-0.6,0-0.6,0
			c-4.2,0-8.2-3.3-8.5-7.9c0,0,0,0,0-0.3c0-0.6,0-1.2,0-1.8c3-35.4,18.7-68.6,43.8-93.7c24.5-24.5,56.8-39.9,91-43.5l54.1-53.8
			c-0.9-1.8-1.8-3.6-2.4-5.7H302.4c-4.5,0-8.5-3.9-8.5-8.5c0-4.5,3.9-8.5,8.5-8.5h180.7c0.6-2.1,1.2-3.9,2.4-5.7l-53.8-54.1
			c-34.4-3.6-66.5-19-91-43.5C315.7,422.6,300,389,297,354c0-0.6,0-1.2,0-1.8v-0.3c0.3-4.5,4.5-8.2,9.1-7.9
			c35.7,3,68.9,18.7,94.3,43.8c24.5,24.5,39.9,56.8,43.5,91l53.8,53.8c1.8-0.9,3.6-1.8,5.7-2.4V349.4c0-4.5,3.9-8.5,8.5-8.5
			c4.5,0,8.5,3.9,8.5,8.5v180.7c2.1,0.6,3.9,1.2,5.7,2.4l54.1-53.8c3.6-34.4,19-66.5,43.5-91c25.4-25.4,58.6-40.8,94.3-43.8
			c4.5-0.3,8.8,3,9.1,7.9v0.3c0,0.6,0,1.2,0,1.8c-3,35.4-18.7,68.6-43.8,93.7c-24.5,24.5-56.8,39.9-91,43.5l-53.8,53.8
			c0.9,1.8,1.8,3.6,2.4,5.7h180.7c4.5,0,8.5,3.9,8.5,8.5C730,563.7,726.1,567.9,721.6,567.9z"/>
		<path class="st1" d="M709.2,756.2c-4.5-27.5-17.8-53.2-37.5-73.1c-19.9-19.9-45.6-32.9-73.1-37.5c4.5,27.5,17.8,53.2,37.5,73.1
			C655.7,738.6,681.7,751.9,709.2,756.2z"/>
	</g>
	<path class="st2" d="M680.5,200.1v18.1c0,3.9-0.9,7.6-2.4,10.6c-5.7,11.2-20.2,16-32,9.1c0,0-0.3,0-0.3-0.3
		c-40.2-23.9-86.1-36.3-132.7-36.3c-46.8,0-92.5,12.7-132.7,36.3c0,0-0.3,0.3-0.6,0.3c-12.1,7-26.3,2.1-32-9.1
		c-1.5-3-2.4-6.6-2.4-10.6v-18.1c3-2.1,6.3-3.9,9.4-5.7c49-29,103.6-43.2,158.3-43.2c54.7,0,109.4,14.5,158.3,43.2
		C674.1,195.9,677.1,198,680.5,200.1z"/>
	<path class="st3" d="M680.5,200.4v14.2c0,3.9-0.9,7.6-2.4,10.6c-4.2-2.7-8.5-5.4-12.7-7.9c-46.2-27.2-99.1-41.7-152.6-41.7
		c-53.8,0-106.4,14.5-152.6,41.7c-4.2,2.4-8.5,5.1-12.7,7.9c-1.5-3-2.4-6.6-2.4-10.6v-14.2c1.2-0.9,2.7-1.5,3.9-2.4
		c49.6-29.3,106.4-44.7,164.1-44.7s114.2,15.4,164.1,44.7C677.7,198.9,679,199.5,680.5,200.4z"/>
	<g>
		<g>
			<path class="st0" d="M80.9,454.9L79.4,651l0,0C35,642.2,3.3,603.3,3.6,557.9v-11.2C3.9,501.7,36.5,463,80.9,454.9L80.9,454.9z"/>
		</g>
		<path class="st2" d="M149.5,661c0,7.9-6.3,13.9-14.2,13.9l-43.5-0.3c-7.9,0-13.9-6.3-13.9-14.2V651l1.5-196.1v-9.4
			c0-7.9,6.3-13.9,14.2-13.9l43.5,0.3c7.9,0,13.9,6.3,13.9,14.2L149.5,661z"/>
		<path class="st3" d="M139.3,628.3L87.9,628c-3.6,0-7-1.2-9.7-3.3L77.9,651v9.4c0,7.9,6,13.9,13.9,14.2l43.5,0.3
			c7.9,0,13.9-6,14.2-13.9l0.3-36.6C146.8,626.8,143.2,628.3,139.3,628.3z"/>
	</g>
	<g>
		<g>
			<path class="st0" d="M943.1,454.9c44.4,8.2,77.1,46.8,77.4,91.9v11.2c0.3,45.3-31.4,84.3-75.8,93.1l0,0L943.1,454.9L943.1,454.9z
				"/>
		</g>
		<path class="st2" d="M873,446.1c0-7.9,6-13.9,13.9-14.2l43.5-0.3c7.9,0,13.9,6,14.2,13.9v9.4l1.5,196.1v9.4
			c0,7.9-6,13.9-13.9,14.2l-43.5,0.3c-7.9,0-13.9-6-14.2-13.9L873,446.1z"/>
		<path class="st3" d="M874.2,624.4l0.3,36.6c0,7.9,6.3,13.9,14.2,13.9l43.5-0.3c7.9,0,13.9-6.3,13.9-14.2V651l-0.3-26.3
			c-2.7,2.1-6,3-9.7,3.3l-51.4,0.3C880.8,628.3,877.2,626.8,874.2,624.4z"/>
	</g>
	<g>
		<path class="st2" d="M71.6,661l15.7-9.4c1.2,1.8,114.5,244.5,344.2,250.2l-0.6,18.4C191.2,914.2,72.8,663.1,71.6,661z"/>
		<g>
			<path class="st4" d="M43.2,611.4l26.3,54.4l24.8-12.1l-26.3-54.4c8.2-10,10.3-23.9,4.5-36.3c-8.2-16.6-28.1-23.6-44.7-15.7
				c-16.6,8.2-23.6,28.4-15.4,45C18.1,604.8,30.5,611.7,43.2,611.4z"/>
			<ellipse class="st4" cx="445.7" cy="908.5" rx="47.4" ry="32.6"/>
		</g>
	</g>
</g>
</svg>
