<?xml version="1.0" encoding="utf-8"?>
<!-- Generator: Adobe Illustrator 21.1.0, SVG Export Plug-In . SVG Version: 6.00 Build 0)  -->
<svg version="1.1" id="Layer_1" xmlns="http://www.w3.org/2000/svg" xmlns:xlink="http://www.w3.org/1999/xlink" x="0px" y="0px"
	 viewBox="0 0 1024 1024" style="enable-background:new 0 0 1024 1024;" xml:space="preserve">
<style type="text/css">
	.st0{fill:#FFC300;}
	.st1{fill:#12443E;}
</style>
<g>
	<path class="st0" d="M421.6,906.5c-28.5-28.5-59.4-52.7-59.4-52.7l-44.8,44.8L138.7,720l44.8-44.8c0,0-24.2-30.6-52.7-59.4
		c-28.5-28.5-59.4-52.7-59.4-52.7s-53.5,49.2-57,88.5C9.5,704,65.1,798.8,151.8,885.8c87,87,181.9,142.3,234.3,137.4
		c39-3.5,88.5-57,88.5-57S450.1,935.3,421.6,906.5z"/>
	<g>
		<path class="st1" d="M565.1,761.9c0,0-6.1,86.4-38.1,118.7c68.7,0,133.6-118.4,133.6-118.4L565.1,761.9z"/>
		<g>
			<circle class="st1" cx="620.4" cy="389.7" r="14.6"/>
			<path class="st1" d="M426.8,583.2c27.1-4.7,52.4-17.5,72.2-37c19.5-19.5,32.6-44.8,37-72.2c-27.1,4.7-52.4,17.5-72.2,37
				C444.3,530.8,431.2,555.8,426.8,583.2z"/>
			<path class="st1" d="M814.2,195.9c-27.1,4.7-52.4,17.5-72.2,37c-19.5,19.5-32.6,44.8-37,72.2c27.1-4.7,52.4-17.5,72.2-37
				C797,248.5,809.8,222.9,814.2,195.9z"/>
			<path class="st1" d="M426.8,195.9c4.7,27.1,17.5,52.4,37,72.2c19.5,19.5,44.8,32.6,72.2,37c-4.7-27.1-17.5-52.4-37-72.2
				C479.2,213.3,453.9,200.2,426.8,195.9z"/>
			<path class="st1" d="M620.4,0C405.3,0,231,174.3,231,389.4s174.3,389.4,389.4,389.4s389.4-174.3,389.4-389.4S835.4,0,620.4,0z
				 M826.4,397.8H648.6c-0.6,2-1.5,3.8-2.3,5.5l53,53c33.8,3.5,65.5,18.6,89.6,42.8c24.7,24.7,40.2,57.6,43.1,92.3
				c0,0.6,0,1.2,0,1.7v0.3c-0.3,4.4-4.1,7.6-8.4,7.6c-0.3,0-0.6,0-0.6,0c-34.9-2.9-67.8-18.3-92.5-43.1
				c-24.2-24.2-39.3-55.9-42.8-89.6l-53.3-53c-1.7,0.9-3.5,1.7-5.5,2.3v177.8c0,4.7-3.8,8.4-8.4,8.4c-4.7,0-8.4-3.8-8.4-8.4V417.6
				c-2-0.6-3.8-1.5-5.5-2.3l-53.3,53c-3.5,33.8-18.6,65.5-42.8,89.6c-24.7,24.7-57.9,40.2-92.5,43.1c-0.3,0-0.6,0-0.6,0
				c-4.4,0-7.9-3.2-8.4-7.6c0,0,0,0,0-0.3c0-0.6,0-1.2,0-1.7c2.9-34.9,18.3-67.5,43.1-92.3c24.2-24.2,55.9-39.3,89.6-42.8l53.3-53
				c-0.9-1.7-1.7-3.5-2.3-5.5H414.3c-4.7,0-8.4-3.8-8.4-8.4c0-4.7,3.8-8.4,8.4-8.4h177.8c0.6-2,1.5-3.8,2.3-5.5l-53-53.3
				c-33.8-3.5-65.5-18.6-89.6-42.8c-24.7-24.7-40.2-57.6-43.1-92.3c0-0.6,0-1.2,0-1.7v-0.3c0.3-4.7,4.4-8.1,9-7.6
				c34.9,2.9,67.8,18.3,92.5,43.1c24.2,24.2,39.3,55.9,42.8,89.6l53,53c1.7-0.9,3.5-1.7,5.5-2.3V183.6c0-4.7,3.8-8.4,8.4-8.4
				c4.7,0,8.4,3.8,8.4,8.4v177.8c2,0.6,3.8,1.5,5.5,2.3l53.3-53c3.5-33.8,18.6-65.5,42.8-89.6c24.7-24.7,57.9-40.2,92.5-43.1
				c4.7-0.3,8.7,2.9,9,7.6v0.3c0,0.6,0,1.2,0,1.7c-2.9,34.9-18.3,67.5-43.1,92.3c-24.2,24.2-55.9,39.3-89.6,42.8l-52.7,53
				c0.9,1.7,1.7,3.5,2.3,5.5h177.8c4.7,0,8.4,3.8,8.4,8.4S831,397.8,826.4,397.8z"/>
			<path class="st1" d="M814.2,583.2c-4.7-27.1-17.5-52.4-37-72.2c-19.5-19.5-44.8-32.6-72.2-37c4.7,27.1,17.5,52.4,37,72.2
				C761.8,565.7,787.1,578.8,814.2,583.2z"/>
		</g>
	</g>
</g>
</svg>
