<svg xmlns="http://www.w3.org/2000/svg" width="26.07" height="27.999" viewBox="0 0 26.07 27.999"><defs><style>.a{fill:#f05565;}.b{fill:#efebde;}.c{fill:#d5d0bb;}.d{fill:#36495e;}.e{fill:#7f6e5d;}.f{fill:#26b999;}.g{fill:#fff;}</style></defs><g transform="translate(-0.5)"><g transform="translate(0.5)"><path class="a" d="M21.474,4V5.931H18.282V4H7.339V5.931H4.148V4H.5V9.31H25.122V4Z" transform="translate(-0.5 -2.069)"/><path class="b" d="M4.148,15H.5V35.758H25.122V15H4.148Z" transform="translate(-0.5 -7.759)"/><path class="c" d="M21.4,22H8.5V36H25.4V22Zm-4,.965h3.113v3.379H17.394Zm3.113,7.724H17.394V27.31h3.113ZM13.392,27.31H16.5v3.379H13.392Zm0-4.345H16.5v3.379H13.392Zm-4,0H12.5v3.379H9.389Zm0,4.345H12.5v3.379H9.389ZM12.5,35.034H9.389V31.655H12.5Zm4,0H13.392V31.655H16.5Zm4,0H17.394V31.655h3.113Zm4,0H21.4V31.655h3.113Zm0-4.345H21.4V27.31h3.113ZM21.4,26.345V22.965h3.113v3.379Z" transform="translate(-4.638 -11.38)"/><rect class="d" width="3.379" height="3.862" transform="translate(3.862)"/><rect class="d" width="3.379" height="3.862" transform="translate(17.381)"/><rect class="e" width="3.379" height="3.379" transform="translate(8.587 15.93)"/></g><g transform="translate(14.984 15.93)"><circle class="f" cx="5.793" cy="5.793" r="5.793"/><path class="g" d="M45.568,39.086a.482.482,0,0,0-.672.121l-2.7,3.881-1.906-1.565a.483.483,0,1,0-.612.746l2.31,1.9a.484.484,0,0,0,.306.11.512.512,0,0,0,.066,0,.485.485,0,0,0,.33-.2l3-4.31A.484.484,0,0,0,45.568,39.086Z" transform="translate(-36.603 -36.103)"/></g></g></svg>