<svg xmlns="http://www.w3.org/2000/svg" xmlns:xlink="http://www.w3.org/1999/xlink" width="97.416" height="143.708" viewBox="0 0 97.416 143.708"><defs><style>.a{fill:none;}.b{clip-path:url(#a);}.c{fill:#12443e;}.d{fill:#006837;}.e{fill:#c2dcd3;}.f{clip-path:url(#b);}.g{fill:#fff;font-size:28px;font-family:AccanthisADFStd-Regular, Accanthis ADF Std;}</style><clipPath id="a"><rect class="a" width="97.416" height="143.708"/></clipPath><clipPath id="b"><rect class="a" width="88" height="33"/></clipPath></defs><g class="b"><circle class="c" cx="43.837" cy="43.837" r="43.837" transform="translate(4.871 4.871)"/><path class="d" d="M48.708,0A48.708,48.708,0,1,0,97.416,48.708,48.713,48.713,0,0,0,48.708,0ZM74.455,49.75H52.215a3.557,3.557,0,0,1-.283.692l6.634,6.634a18.666,18.666,0,0,1,16.609,16.9.789.789,0,0,1,0,.214v.029a1.048,1.048,0,0,1-1.042.955h-.088A18.656,18.656,0,0,1,57.1,58.567l-6.644-6.644a3.324,3.324,0,0,1-.692.283v22.24a1.042,1.042,0,0,1-2.085,0V52.215a3.324,3.324,0,0,1-.692-.283L40.33,58.557A18.654,18.654,0,0,1,23.38,75.176h-.088a1.048,1.048,0,0,1-1.042-.955V74.2a.789.789,0,0,1,0-.214,18.666,18.666,0,0,1,16.609-16.9L45.5,50.452a3.325,3.325,0,0,1-.283-.692H22.961a1.042,1.042,0,1,1,0-2.085H45.2a3.325,3.325,0,0,1,.283-.692L38.859,40.33a18.666,18.666,0,0,1-16.609-16.9.79.79,0,0,1,0-.214v-.029a1.047,1.047,0,0,1,1.13-.955A18.657,18.657,0,0,1,40.33,38.84l6.634,6.634a3.325,3.325,0,0,1,.692-.283V22.961a1.042,1.042,0,1,1,2.085,0V45.2a3.557,3.557,0,0,1,.692.283l6.644-6.634A18.657,18.657,0,0,1,74.026,22.24a1.047,1.047,0,0,1,1.13.955v.029a.789.789,0,0,1,0,.214,18.666,18.666,0,0,1-16.609,16.9l-6.624,6.624a3.324,3.324,0,0,1,.283.692h22.24a1.047,1.047,0,0,1,.01,2.094Z"/><circle class="e" cx="1.831" cy="1.831" r="1.831" transform="translate(46.877 46.877)"/><path class="e" d="M251.3,622.238A16.551,16.551,0,0,0,264.938,608.6,16.551,16.551,0,0,0,251.3,622.238Z" transform="translate(-226.819 -549.313)"/><path class="e" d="M622.238,251.3A16.551,16.551,0,0,0,608.6,264.938,16.551,16.551,0,0,0,622.238,251.3Z" transform="translate(-549.313 -226.819)"/><path class="e" d="M251.4,251.3a16.551,16.551,0,0,0,13.638,13.638A16.551,16.551,0,0,0,251.4,251.3Z" transform="translate(-226.91 -226.819)"/><path class="e" d="M48.708,0A48.708,48.708,0,1,0,97.416,48.708,48.713,48.713,0,0,0,48.708,0ZM74.455,49.75H52.215a3.557,3.557,0,0,1-.283.692l6.634,6.634a18.666,18.666,0,0,1,16.609,16.9.789.789,0,0,1,0,.214v.029a1.048,1.048,0,0,1-1.042.955h-.088A18.656,18.656,0,0,1,57.1,58.567l-6.644-6.644a3.324,3.324,0,0,1-.692.283v22.24a1.042,1.042,0,0,1-2.085,0V52.215a3.324,3.324,0,0,1-.692-.283L40.33,58.557A18.654,18.654,0,0,1,23.38,75.176h-.088a1.048,1.048,0,0,1-1.042-.955V74.2a.789.789,0,0,1,0-.214,18.666,18.666,0,0,1,16.609-16.9L45.5,50.452a3.325,3.325,0,0,1-.283-.692H22.961a1.042,1.042,0,1,1,0-2.085H45.2a3.325,3.325,0,0,1,.283-.692L38.859,40.33a18.666,18.666,0,0,1-16.609-16.9.79.79,0,0,1,0-.214v-.029a1.047,1.047,0,0,1,1.13-.955A18.657,18.657,0,0,1,40.33,38.84l6.634,6.634a3.325,3.325,0,0,1,.692-.283V22.961a1.042,1.042,0,1,1,2.085,0V45.2a3.557,3.557,0,0,1,.692.283l6.644-6.634A18.657,18.657,0,0,1,74.026,22.24a1.047,1.047,0,0,1,1.13.955v.029a.789.789,0,0,1,0,.214,18.666,18.666,0,0,1-16.609,16.9l-6.624,6.624a3.324,3.324,0,0,1,.283.692h22.24a1.047,1.047,0,0,1,.01,2.094Z"/><path class="e" d="M622.338,622.238A16.552,16.552,0,0,0,608.7,608.6a16.551,16.551,0,0,0,13.638,13.638Z" transform="translate(-549.403 -549.313)"/><g class="f" transform="translate(4.708 110.708)"><text class="g" transform="translate(44 26)"><tspan x="-43.554" y="0">Sukoon</tspan></text></g></g></svg>