<?xml version="1.0" encoding="utf-8"?>
<!-- Generator: Adobe Illustrator 23.0.5, SVG Export Plug-In . SVG Version: 6.00 Build 0)  -->
<svg version="1.1" id="Layer_1" xmlns="http://www.w3.org/2000/svg" xmlns:xlink="http://www.w3.org/1999/xlink" x="0px" y="0px"
	 viewBox="0 0 1024 1024" style="enable-background:new 0 0 1024 1024;" xml:space="preserve">
<style type="text/css">
	.st0{fill:#10443E;}
	.st1{fill:#C2DCD3;}
</style>
<g>
	<circle class="st0" cx="512" cy="511.8" r="511.8"/>
</g>
<path class="st1" d="M782.5,522.8c6.1,0,11-4.9,11-11c0-6.1-4.9-11-11-11H548.8c-0.8-2.5-1.8-5-3-7.3l69.7-69.7
	c44.4-4.7,86.2-24.6,117.9-56.3C765.9,335,786,291.9,790,246.2c0.1-0.8,0.1-1.5,0-2.2c0-0.1,0-0.2,0-0.3c-0.5-6.1-5.8-10.5-11.9-10
	c-45.9,3.9-89.2,24.1-121.8,56.7c-31.7,31.7-51.6,73.4-56.3,117.9L530.2,478c-2.3-1.2-4.7-2.2-7.2-3V241.3c0-6.1-4.9-11-11-11
	c-6.1,0-11,4.9-11,11V475c-2.5,0.8-5,1.8-7.2,3L424,408.2c-4.7-44.4-24.6-86.2-56.3-117.9c-32.6-32.6-75.9-52.8-121.8-56.7
	c-6-0.5-11.4,4-11.9,10c0,0.1,0,0.2,0,0.3c-0.1,0.7-0.1,1.5,0,2.2c4,45.7,24.2,88.8,56.7,121.3c31.7,31.7,73.4,51.6,117.9,56.3
	l69.7,69.7c-1.2,2.3-2.2,4.7-3,7.3H241.5c-6.1,0-11,4.9-11,11c0,6.1,4.9,11,11,11h233.7c0.8,2.5,1.7,4.9,3,7.2l-69.8,69.8
	c-44.4,4.7-86.1,24.6-117.8,56.3c-32.5,32.5-52.6,75.6-56.7,121.3c-0.1,0.8-0.1,1.5,0,2.3c0,0.1,0,0.2,0,0.2
	c0.5,5.7,5.3,10.1,10.9,10.1c0.3,0,0.6,0,1,0c45.9-3.9,89.2-24.1,121.8-56.7c31.7-31.7,51.6-73.4,56.3-117.9l69.7-69.7
	c2.3,1.2,4.7,2.3,7.3,3v233.7c0,6.1,4.9,11,11,11c6.1,0,11-4.9,11-11V548.6c2.5-0.8,5-1.8,7.3-3l69.7,69.7
	c4.7,44.4,24.6,86.2,56.3,117.9c32.6,32.6,75.9,52.8,121.8,56.7c0.3,0,0.6,0,1,0c5.6,0,10.5-4.3,10.9-10.1c0-0.1,0-0.2,0-0.3
	c0.1-0.7,0.1-1.5,0-2.2c-4-45.7-24.2-88.8-56.7-121.3c-31.7-31.7-73.4-51.6-117.9-56.3L545.8,530c1.2-2.3,2.2-4.7,3-7.2H782.5z
	 M671.8,305.9c25.8-25.8,59-42.8,94.7-48.7c-5.9,35.7-22.9,68.9-48.7,94.7c-25.8,25.8-59,42.8-94.7,48.7
	C629,364.9,646,331.7,671.8,305.9z M306.1,351.9c-25.8-25.8-42.8-59-48.7-94.7c35.7,5.9,68.9,22.9,94.7,48.7
	c25.8,25.8,42.8,59,48.7,94.7C365.1,394.7,331.9,377.7,306.1,351.9z M352.1,717.6c-25.8,25.8-59,42.8-94.7,48.7
	c5.9-35.7,22.9-68.9,48.7-94.7c25.8-25.8,59-42.8,94.7-48.7C394.9,658.6,377.9,691.8,352.1,717.6z M512,531
	c-10.6,0-19.2-8.6-19.2-19.2s8.6-19.2,19.2-19.2c10.6,0,19.2,8.6,19.2,19.2S522.6,531,512,531z M717.8,671.6
	c25.8,25.8,42.8,59,48.7,94.7c-35.7-5.9-68.9-22.9-94.7-48.7c-25.8-25.8-42.8-59-48.7-94.7C658.8,628.8,692.1,645.8,717.8,671.6z"/>
</svg>
