<svg xmlns="http://www.w3.org/2000/svg" viewBox="0 0 25 13.75"><defs><style>.cls-1{fill:#fff;}</style></defs><title>Begind Therapy</title><g id="Layer_2" data-name="Layer 2"><g id="Layer_1-2" data-name="Layer 1"><path class="cls-1" d="M15,10.69a13.53,13.53,0,0,1,2.69.47c.48.12,1,.25,1.43.39a.31.31,0,0,0,.42-.15l3.93-5.88a.77.77,0,0,1,.95-.39.76.76,0,0,1,.45,1.08,6.49,6.49,0,0,1-.39.62L20.34,13a.56.56,0,0,0-.07.35c0,.25-.08.35-.32.31h-.17c-.21,0-.33,0-.31-.27a.19.19,0,0,0-.16-.21,25.53,25.53,0,0,0-3.86-.93,5.5,5.5,0,0,0-2.27.36l-.69.24a.28.28,0,0,0-.23.32c0,.55.06.49-.52.49-.17,0-.29,0-.28-.23s-.07-.15-.18-.16A.78.78,0,0,1,11,11.79a14.57,14.57,0,0,1,3.61-1.07C14.75,10.7,14.9,10.7,15,10.69Z"/><path class="cls-1" d="M16.07,0a3.2,3.2,0,0,1,2.21,1,2,2,0,0,1,0,2.8,1,1,0,0,0-.09,1.58s.08.07.06.13-.1,0-.16,0a5.45,5.45,0,0,1-1-.3c-.27-.1-.54-.2-.8-.32a4.76,4.76,0,0,0-1.12-.18,3.26,3.26,0,0,1-1.87-.92,2,2,0,0,1,.14-3A3.63,3.63,0,0,1,16.07,0Z"/><path class="cls-1" d="M5.86,13.7c-.14,0-.29,0-.4-.11s-.14,0-.21,0h-3a.44.44,0,0,0-.3.1A.62.62,0,0,1,1,13.27C.7,11.19.38,9.11.1,7c0-.35-.08-.7-.1-1s.2-.53.57-.42A2,2,0,0,1,1.86,7.82c-.05.3-.11.61-.16.91a1.36,1.36,0,0,0,1.38,1.73,12.14,12.14,0,0,1,1.47.12,2.28,2.28,0,0,1,1.86,2.06c0,.15,0,.3,0,.46C6.48,13.47,6.31,13.76,5.86,13.7Z"/><path class="cls-1" d="M6.68,7.6a.7.7,0,0,0-.78-.11,2.43,2.43,0,0,1-.55.09A1.09,1.09,0,0,1,4.1,6.42c0-.25,0-.5,0-.75a.54.54,0,0,0-.5-.56A.55.55,0,0,0,3,5.57a3.5,3.5,0,0,0,.22,1.89A2.2,2.2,0,0,0,4.85,8.75a1.7,1.7,0,0,0,1.07.05c.06,0,.18,0,.14.11s.05.13.11.16a3,3,0,0,1,1.64,1.65,4.57,4.57,0,0,1,.46,1.88.7.7,0,1,1-1.39,0,3.23,3.23,0,0,0-.54-1.7A1.67,1.67,0,0,0,5,10.19a5.34,5.34,0,0,0-.8,0A1.15,1.15,0,0,1,3,9.57a6.17,6.17,0,0,1-.67-2.3,6.67,6.67,0,0,1,0-1.34,1.44,1.44,0,0,1,1-1.24A.8.8,0,0,1,4.2,5a1.84,1.84,0,0,1,.36,1.16c0,.33.07.39.41.41h.48c.16,0,.22-.07.09-.21l0,0c0-.06-.09-.12,0-.19s.14,0,.18.05a.49.49,0,0,0,.52.26A.45.45,0,0,1,6.65,7a1,1,0,0,0,.06.61Z"/><path class="cls-1" d="M18.51,8.22,19,7.45c.15-.24.29-.49.43-.74a1.69,1.69,0,0,1,.49-.54.87.87,0,0,1,1.31.24,1.39,1.39,0,0,1,.17,1.28,6.44,6.44,0,0,1-2.09,3,1.21,1.21,0,0,1-1.33.2,6.67,6.67,0,0,0-5.24,0,.72.72,0,1,1-.54-1.34A8,8,0,0,1,16.39,9a.28.28,0,0,1,.3.28.54.54,0,0,0,.56.47,4.06,4.06,0,0,0,2.84-1.16,3.6,3.6,0,0,0,.84-1.3.59.59,0,0,0-.28-.83.57.57,0,0,0-.78.4A2.49,2.49,0,0,1,18.51,8.22Z"/><path class="cls-1" d="M12,2.33a1.75,1.75,0,0,1-1.14,1.44A2.19,2.19,0,0,1,9.9,4a3.21,3.21,0,0,0-1.14.3A4.28,4.28,0,0,1,8,4.59c-.06,0-.13,0-.17,0s0-.1.06-.14a.76.76,0,0,0-.1-1.14A1.56,1.56,0,0,1,7.86,1,2.81,2.81,0,0,1,11.31.92,1.63,1.63,0,0,1,12,2.33Z"/><path class="cls-1" d="M4.32,4.62A1.37,1.37,0,0,1,3,3.24,1.39,1.39,0,1,1,4.32,4.62Z"/><path class="cls-1" d="M21.62,6a1.34,1.34,0,0,1-1.37-1.38,1.38,1.38,0,0,1,2.76,0A1.35,1.35,0,0,1,21.62,6Z"/><path class="cls-1" d="M4,6a2.85,2.85,0,0,0,0,.51A1.27,1.27,0,0,0,5.47,7.73a8.4,8.4,0,0,0,.85-.08A.5.5,0,0,1,6.88,8a.48.48,0,0,1-.32.58,3.09,3.09,0,0,1-2.47-.23A2.29,2.29,0,0,1,3,6.64a2.91,2.91,0,0,1,0-1,.51.51,0,0,1,.57-.44A.49.49,0,0,1,4,5.7V6Z"/><path class="cls-1" d="M17.37,9.64c-.38,0-.61-.19-.63-.48a.52.52,0,0,1,.48-.55c.23,0,.47,0,.7-.09a2.68,2.68,0,0,0,2-1.7.53.53,0,0,1,.55-.39.52.52,0,0,1,.45.42.63.63,0,0,1-.06.38A3.74,3.74,0,0,1,18,9.55C17.8,9.6,17.55,9.61,17.37,9.64Z"/><path class="cls-1" d="M6.71,7.56a12.24,12.24,0,0,0,.83-1.07c.06-.07.1-.16.21-.14s.29,0,.35.12S8,6.66,8,6.74c-.25.3-.51.59-.77.88s-.26.29-.5,0Z"/></g></g></svg>