<svg xmlns="http://www.w3.org/2000/svg" viewBox="0 0 25 28.06"><defs><style>.cls-1{fill:#fff;}</style></defs><title>Book appointment</title><g id="Layer_2" data-name="Layer 2"><g id="Layer_1-2" data-name="Layer 1"><path class="cls-1" d="M23.36,9.52h-.15a1.34,1.34,0,0,1,.05.35v.72h.1a.57.57,0,0,1,.57.57V24.21a.56.56,0,0,1-.57.57H13.48a.57.57,0,0,1-.57-.57v-13a.58.58,0,0,1,.57-.57h.27V9.87a1.34,1.34,0,0,1,.05-.35h-.32a1.65,1.65,0,0,0-1.64,1.64V24.21a1.64,1.64,0,0,0,1.64,1.64h9.88A1.63,1.63,0,0,0,25,24.21v-13A1.64,1.64,0,0,0,23.36,9.52Z"/><path class="cls-1" d="M15.05,11.65H22a.54.54,0,0,0,.53-.54V9.86A.53.53,0,0,0,22,9.33H20.51a2,2,0,0,0-4,0H15.05a.53.53,0,0,0-.53.53v1.25A.54.54,0,0,0,15.05,11.65ZM18.5,8.28a1.09,1.09,0,0,1,1.09,1.05H17.42A1.09,1.09,0,0,1,18.5,8.28Z"/><path class="cls-1" d="M19.83,14a.8.8,0,0,0-.8.8v2.58a.8.8,0,0,0,.8.8H22.4a.8.8,0,0,0,.81-.8V14.83a.8.8,0,0,0-.81-.8Zm2.92.8v2.58a.35.35,0,0,1-.35.34H19.83a.35.35,0,0,1-.35-.34V14.83a.35.35,0,0,1,.35-.34H22.4A.35.35,0,0,1,22.75,14.83Z"/><path class="cls-1" d="M22.4,19.42H19.83a.8.8,0,0,0-.8.8v2.57a.8.8,0,0,0,.8.81H22.4a.81.81,0,0,0,.81-.81V20.22A.8.8,0,0,0,22.4,19.42Zm.35,3.37a.35.35,0,0,1-.35.35H19.83a.35.35,0,0,1-.35-.35V20.22a.35.35,0,0,1,.35-.35H22.4a.35.35,0,0,1,.35.35Z"/><path class="cls-1" d="M15.19,17.69l2.56-2.57a.3.3,0,0,0-.43-.43l-2.13,2.13L14.35,16a.3.3,0,0,0-.43.43Z"/><path class="cls-1" d="M15.19,23.11l2.56-2.56a.3.3,0,0,0-.43-.43l-2.13,2.13-.84-.84a.3.3,0,0,0-.43.43Z"/><path class="cls-1" d="M11.67,9.84a2.18,2.18,0,0,0-.44,1.32v2.57c-1,2.18-2.5,4.23-4.65,4.23h0C2.78,18,1,11.51.48,9.35l.25-.2a4.12,4.12,0,0,1,2.39-.61,8.72,8.72,0,0,1,3.22.7A10.06,10.06,0,0,0,10,10,6.82,6.82,0,0,0,11.67,9.84Z"/><path class="cls-1" d="M12.83,8.65s-2.11,1.67-6.25,0-6.25,0-6.25,0c0-3.46.25-6.26,6.25-6.26S12.83,5.19,12.83,8.65Z"/><path class="cls-1" d="M13.16,28.06H0C0,24.42.33,18,6.58,18h0a5.62,5.62,0,0,1,4.65,2v4.24a2.27,2.27,0,0,0,1.9,2.23C13.16,27,13.16,27.56,13.16,28.06Z"/><path class="cls-1" d="M9.19,2a13.18,13.18,0,0,0-2.61-.23A13.13,13.13,0,0,0,3.88,2,2.63,2.63,0,0,1,6.54,0,2.62,2.62,0,0,1,9.19,2Z"/></g></g></svg>