<svg xmlns="http://www.w3.org/2000/svg" viewBox="0 0 25 21.45"><defs><style>.cls-1{fill:#fff;}</style></defs><title>Get free consultant</title><g id="Layer_2" data-name="Layer 2"><g id="Layer_1-2" data-name="Layer 1"><circle class="cls-1" cx="3.92" cy="10.36" r="2.71"/><path class="cls-1" d="M7.84,18.47h0v3H0v-3H0v-.13a3.93,3.93,0,1,1,7.85,0A.57.57,0,0,1,7.84,18.47Z"/><circle class="cls-1" cx="21.08" cy="10.36" r="2.71"/><path class="cls-1" d="M25,18.47h0v3H17.15v-3h0a.57.57,0,0,1,0-.13,3.93,3.93,0,1,1,7.85,0Z"/><path class="cls-1" d="M13.36,0H7A1.23,1.23,0,0,0,5.73,1.23V4.69a1.49,1.49,0,0,0,0,.36l0,.13L7.2,8.73,8.48,5.92h4.88A1.24,1.24,0,0,0,14.6,4.69V1.23A1.24,1.24,0,0,0,13.36,0Zm-.81,4.22H7.66a.33.33,0,1,1,0-.66h4.89a.33.33,0,0,1,0,.66Zm0-1.56H7.66a.33.33,0,0,1,0-.66h4.89a.33.33,0,0,1,0,.66Z"/><path class="cls-1" d="M16.82,3.78H15.14v.91a1.8,1.8,0,0,1-.39,1.1h1.37a.33.33,0,1,1,0,.65H13.61a1,1,0,0,1-.25,0H9.19v2A1.23,1.23,0,0,0,10.42,9.7H15.3l1.28,2.81L18,9,18,8.83a1.49,1.49,0,0,0,.05-.36V5A1.23,1.23,0,0,0,16.82,3.78ZM16.12,8H11.24a.33.33,0,0,1,0-.66h4.88a.33.33,0,1,1,0,.66Z"/></g></g></svg>