<?xml version="1.0" encoding="utf-8"?>
<!-- Generator: Adobe Illustrator 21.1.0, SVG Export Plug-In . SVG Version: 6.00 Build 0)  -->
<svg version="1.1" id="Capa_1" xmlns="http://www.w3.org/2000/svg" xmlns:xlink="http://www.w3.org/1999/xlink" x="0px" y="0px"
	 viewBox="0 0 58 58" style="enable-background:new 0 0 58 58;" xml:space="preserve">
<style type="text/css">
	.st0{fill:#12443E;}
	.st1{fill:#38454F;}
	.st2{fill:#AFB6BB;}
	.st3{fill:#839594;}
	.st4{fill:#D6D6D6;}
	.st5{fill:#B7B195;}
</style>
<polygon class="st0" points="42,5 16,5 1,5 1,18 57,18 57,5 "/>
<circle class="st1" cx="20" cy="9" r="2"/>
<circle class="st1" cx="26" cy="9" r="2"/>
<circle class="st1" cx="32" cy="9" r="2"/>
<circle class="st1" cx="38" cy="9" r="2"/>
<path class="st2" d="M38,0c-1.1,0-2.2,0.4-3,1c0.5,0.4,1,0.9,1.3,1.5C36.8,2.2,37.4,2,38,2c1.7,0,3,1.3,3,3s-1.3,3-3,3
	c-0.6,0-1,0.4-1,1s0.4,1,1,1c2.8,0,5-2.2,5-5S40.8,0,38,0z"/>
<path class="st3" d="M33.7,2.5C33.3,3.3,33,4.1,33,5h2C35,4,34.5,3.1,33.7,2.5z"/>
<path class="st3" d="M27.7,2.5C27.3,3.3,27,4.1,27,5h2C29,4,28.5,3.1,27.7,2.5z"/>
<path class="st2" d="M36.3,2.5C36,1.9,35.5,1.4,35,1c-0.8-0.6-1.9-1-3-1s-2.2,0.4-3,1c0.5,0.4,1,0.9,1.3,1.5C30.8,2.2,31.4,2,32,2
	s1.2,0.2,1.7,0.5C34.5,3.1,35,4,35,5c0,1.7-1.3,3-3,3c-0.6,0-1,0.4-1,1s0.4,1,1,1c2.8,0,5-2.2,5-5C37,4.1,36.7,3.3,36.3,2.5z"/>
<path class="st3" d="M21.7,2.5C21.3,3.3,21,4.1,21,5h2C23,4,22.5,3.1,21.7,2.5z"/>
<path class="st2" d="M30.3,2.5C30,1.9,29.5,1.4,29,1c-0.8-0.6-1.9-1-3-1s-2.2,0.4-3,1c0.5,0.4,1,0.9,1.3,1.5C24.8,2.2,25.4,2,26,2
	s1.2,0.2,1.7,0.5C28.5,3.1,29,4,29,5c0,1.7-1.3,3-3,3c-0.6,0-1,0.4-1,1s0.4,1,1,1c2.8,0,5-2.2,5-5C31,4.1,30.7,3.3,30.3,2.5z"/>
<path class="st2" d="M24.3,2.5C24,1.9,23.5,1.4,23,1c-0.8-0.6-1.9-1-3-1c-2.8,0-5,2.2-5,5h2c0-1.7,1.3-3,3-3c0.6,0,1.2,0.2,1.7,0.5
	C22.5,3.1,23,4,23,5c0,1.7-1.3,3-3,3c-0.6,0-1,0.4-1,1s0.4,1,1,1c2.8,0,5-2.2,5-5C25,4.1,24.7,3.3,24.3,2.5z"/>
<rect x="1" y="18" class="st4" width="56" height="40"/>
<circle class="st5" cx="13" cy="29" r="5"/>
<circle class="st5" cx="29" cy="29" r="5"/>
<circle class="st5" cx="45" cy="29" r="5"/>
<circle class="st5" cx="13" cy="45" r="5"/>
<circle class="st5" cx="29" cy="45" r="5"/>
<circle class="st0" cx="45" cy="45" r="5"/>
</svg>
