<?xml version="1.0" encoding="utf-8"?>
<!-- Generator: Adobe Illustrator 21.1.0, SVG Export Plug-In . SVG Version: 6.00 Build 0)  -->
<svg version="1.1" id="Layer_1" xmlns="http://www.w3.org/2000/svg" xmlns:xlink="http://www.w3.org/1999/xlink" x="0px" y="0px"
	 viewBox="0 0 1000 1000" style="enable-background:new 0 0 1000 1000;" xml:space="preserve">
<style type="text/css">
	.st0{fill:#12443E;}
	.st1{fill:#006837;}
	.st2{fill:#C2DCD3;}
</style>
<circle class="st0" cx="500" cy="500" r="450"/>
<g>
	<path class="st1" d="M500,0C223.9,0,0,223.9,0,500c0,276.1,223.9,500,500,500c276.1,0,500-223.9,500-500C1000,223.9,776.1,0,500,0z
		 M764.3,510.7H536c-0.7,2.5-1.7,4.8-2.9,7.1l68.1,68.1c43.4,4.6,84.2,24,115.1,55c31.8,31.8,51.4,73.8,55.4,118.5
		c0.1,0.7,0.1,1.5,0,2.2c0,0.1,0,0.2,0,0.3c-0.5,5.6-5.2,9.8-10.7,9.8c-0.3,0-0.6,0-0.9,0c-44.9-3.8-87.2-23.5-119-55.4
		c-31-31-50.4-71.7-55-115.1L517.9,533c-2.2,1.2-4.6,2.2-7.1,2.9v228.3c0,5.9-4.8,10.7-10.7,10.7c-5.9,0-10.7-4.8-10.7-10.7V536
		c-2.5-0.7-4.9-1.7-7.1-2.9L414,601.1c-4.6,43.4-24,84.2-55,115.2c-31.9,31.9-74.2,51.6-119,55.4c-0.3,0-0.6,0-0.9,0
		c-5.5,0-10.2-4.2-10.7-9.8c0-0.1,0-0.1,0-0.2c-0.1-0.7-0.1-1.5,0-2.2c3.9-44.7,23.6-86.8,55.4-118.5c31-31,71.7-50.4,115.1-55
		l68.2-68.1c-1.2-2.2-2.2-4.6-2.9-7.1H235.7c-5.9,0-10.7-4.8-10.7-10.7s4.8-10.7,10.7-10.7H464c0.7-2.5,1.7-4.9,2.9-7.1L398.9,414
		c-43.4-4.6-84.2-24-115.1-55c-31.8-31.8-51.4-73.9-55.4-118.5c-0.1-0.7-0.1-1.5,0-2.2c0-0.1,0-0.2,0-0.3c0.5-5.9,5.7-10.3,11.6-9.8
		c44.9,3.8,87.1,23.5,119,55.4c31,31,50.4,71.7,55,115.1l68.1,68.1c2.2-1.2,4.6-2.2,7.1-2.9V235.7c0-5.9,4.8-10.7,10.7-10.7
		c5.9,0,10.7,4.8,10.7,10.7V464c2.5,0.7,4.8,1.7,7.1,2.9l68.2-68.1c4.6-43.4,24-84.2,55-115.1c31.9-31.9,74.2-51.6,119-55.4
		c5.9-0.5,11.1,3.9,11.6,9.8c0,0.1,0,0.2,0,0.3c0.1,0.7,0.1,1.4,0,2.2c-3.9,44.7-23.6,86.8-55.4,118.5c-31,31-71.7,50.4-115.1,55
		L533,482.1c1.2,2.2,2.2,4.6,2.9,7.1h228.3c5.9,0,10.7,4.8,10.7,10.7S770.2,510.7,764.3,510.7z"/>
	<circle class="st2" cx="500" cy="500" r="18.8"/>
	<path class="st2" d="M251.3,748.6c34.9-5.8,67.3-22.4,92.5-47.5c25.2-25.2,41.8-57.6,47.5-92.5c-34.9,5.8-67.3,22.4-92.5,47.5
		C273.7,681.3,257.1,713.7,251.3,748.6z"/>
	<path class="st2" d="M748.6,251.3c-34.9,5.8-67.3,22.4-92.5,47.5c-25.2,25.2-41.8,57.6-47.5,92.5c34.9-5.8,67.3-22.4,92.5-47.5
		C726.3,318.7,742.9,286.2,748.6,251.3z"/>
	<path class="st2" d="M251.4,251.3c5.8,34.9,22.4,67.3,47.5,92.5c25.2,25.2,57.6,41.8,92.5,47.5c-5.8-34.9-22.4-67.3-47.5-92.5
		C318.7,273.7,286.2,257.1,251.4,251.3z"/>
	<path class="st2" d="M500,0C223.9,0,0,223.9,0,500c0,276.1,223.9,500,500,500c276.1,0,500-223.9,500-500C1000,223.9,776.1,0,500,0z
		 M764.3,510.7H536c-0.7,2.5-1.7,4.8-2.9,7.1l68.1,68.1c43.4,4.6,84.2,24,115.1,55c31.8,31.8,51.4,73.8,55.4,118.5
		c0.1,0.7,0.1,1.5,0,2.2c0,0.1,0,0.2,0,0.3c-0.5,5.6-5.2,9.8-10.7,9.8c-0.3,0-0.6,0-0.9,0c-44.9-3.8-87.2-23.5-119-55.4
		c-31-31-50.4-71.7-55-115.1L517.9,533c-2.2,1.2-4.6,2.2-7.1,2.9v228.3c0,5.9-4.8,10.7-10.7,10.7c-5.9,0-10.7-4.8-10.7-10.7V536
		c-2.5-0.7-4.9-1.7-7.1-2.9L414,601.1c-4.6,43.4-24,84.2-55,115.2c-31.9,31.9-74.2,51.6-119,55.4c-0.3,0-0.6,0-0.9,0
		c-5.5,0-10.2-4.2-10.7-9.8c0-0.1,0-0.1,0-0.2c-0.1-0.7-0.1-1.5,0-2.2c3.9-44.7,23.6-86.8,55.4-118.5c31-31,71.7-50.4,115.1-55
		l68.2-68.1c-1.2-2.2-2.2-4.6-2.9-7.1H235.7c-5.9,0-10.7-4.8-10.7-10.7s4.8-10.7,10.7-10.7H464c0.7-2.5,1.7-4.9,2.9-7.1L398.9,414
		c-43.4-4.6-84.2-24-115.1-55c-31.8-31.8-51.4-73.9-55.4-118.5c-0.1-0.7-0.1-1.5,0-2.2c0-0.1,0-0.2,0-0.3c0.5-5.9,5.7-10.3,11.6-9.8
		c44.9,3.8,87.1,23.5,119,55.4c31,31,50.4,71.7,55,115.1l68.1,68.1c2.2-1.2,4.6-2.2,7.1-2.9V235.7c0-5.9,4.8-10.7,10.7-10.7
		c5.9,0,10.7,4.8,10.7,10.7V464c2.5,0.7,4.8,1.7,7.1,2.9l68.2-68.1c4.6-43.4,24-84.2,55-115.1c31.9-31.9,74.2-51.6,119-55.4
		c5.9-0.5,11.1,3.9,11.6,9.8c0,0.1,0,0.2,0,0.3c0.1,0.7,0.1,1.4,0,2.2c-3.9,44.7-23.6,86.8-55.4,118.5c-31,31-71.7,50.4-115.1,55
		L533,482.1c1.2,2.2,2.2,4.6,2.9,7.1h228.3c5.9,0,10.7,4.8,10.7,10.7S770.2,510.7,764.3,510.7z"/>
	<path class="st2" d="M748.7,748.6c-5.8-34.9-22.4-67.3-47.5-92.5c-25.2-25.2-57.6-41.8-92.5-47.5c5.8,34.9,22.4,67.3,47.5,92.5
		C681.3,726.3,713.8,742.9,748.7,748.6z"/>
</g>
</svg>
