<?xml version="1.0" encoding="utf-8"?>
<!-- Generator: Adobe Illustrator 21.1.0, SVG Export Plug-In . SVG Version: 6.00 Build 0)  -->
<svg version="1.1" id="Layer_1" xmlns="http://www.w3.org/2000/svg" xmlns:xlink="http://www.w3.org/1999/xlink" x="0px" y="0px"
	 viewBox="0 0 50 25" style="enable-background:new 0 0 50 25;" xml:space="preserve">
<style type="text/css">
	.st0{fill:#12443E;}
	.st1{fill:#12443D;}
</style>
<g>
	<path class="st0" d="M0,0h50L25.1,24.9L0,0z"/>
</g>
<g>
	<path class="st0" d="M0,96.2h39.3L29.4,86l3.9-4L50,99l-16.7,17l-3.9-4l9.9-10.2H0V96.2z"/>
</g>
<g>
	<path class="st1" d="M151,21.6c4.1,8.1,10.2,14.2,18.4,18.4l6.1-6.1c0.8-0.9,1.7-1.1,2.9-0.6c3.1,1,6.4,1.6,9.9,1.6
		c0.7,0,1.3,0.3,1.9,0.8c0.6,0.5,0.8,1.2,0.8,2v9.8c0,0.7-0.3,1.3-0.8,1.9c-0.6,0.6-1.2,0.8-1.9,0.8c-8.6,0-16.5-2.1-23.8-6.3
		c-7.2-4.2-13-9.9-17.2-17.2c-4.2-7.2-6.3-15.2-6.3-23.8c0-0.7,0.3-1.3,0.8-1.9c0.6-0.6,1.2-0.8,1.9-0.8h9.8c0.8,0,1.4,0.3,2,0.8
		c0.5,0.6,0.8,1.2,0.8,1.9c0,3.5,0.5,6.8,1.6,9.9c0.3,1.1,0.1,2.1-0.7,2.9L151,21.6z"/>
</g>
<g>
	<path class="st1" d="M-30,5c1.4,0,2.6,0.5,3.6,1.5c1,1,1.5,2.2,1.5,3.6v30c0,1.4-0.5,2.6-1.5,3.6c-1,1-2.2,1.5-3.6,1.5H-70
		c-1.4,0-2.6-0.5-3.6-1.5c-1-1-1.5-2.2-1.5-3.6V10c0-1.4,0.5-2.6,1.5-3.6c1-1,2.2-1.5,3.6-1.5H-30z M-30,15v-5l-20,12.5L-70,10v5
		l19.9,12.4L-30,15z"/>
</g>
</svg>
