<?xml version="1.0" encoding="utf-8"?>
<!-- Generator: Adobe Illustrator 21.1.0, SVG Export Plug-In . SVG Version: 6.00 Build 0)  -->
<svg version="1.1" id="Layer_1" xmlns="http://www.w3.org/2000/svg" xmlns:xlink="http://www.w3.org/1999/xlink" x="0px" y="0px"
	 viewBox="0 0 1000 1000" style="enable-background:new 0 0 1000 1000;" xml:space="preserve">
<style type="text/css">
	.st0{fill:#010002;}
</style>
<g>
	<path class="st0" d="M476.5,949c248,0,449-201,449-449s-201-449-449-449v82.9c202.2,0,366.1,163.9,366.1,366.1
		S678.7,866.1,476.5,866.1V949z"/>
	<g>
		<g>
			<path class="st0" d="M391,894.8c-7.1,9.2-16.6,13.8-28.6,13.8l-140.5-0.5c-6.7,0.4-13.9-0.8-21.5-3.4
				c-7.6-2.7-14.2-6.1-19.9-10.3c-0.4-0.4-1.5-1.3-3.5-2.9c-1.9-1.6-4.3-3.8-7.2-6.6c-6.7-6.7-16.4-18.7-29.2-36.1
				c-12.7-17.3-25.4-41.4-38.2-72.1C89.8,745.8,78.7,707.6,69.2,662c-9.5-45.6-14.1-99.7-13.8-162.3c-0.4-49.1,2.5-93,8.5-131.5
				c6-38.5,13.5-72.2,22.5-101c9-28.8,18.7-53.4,29.2-73.7s20.3-36.9,29.7-49.8s17.4-22.4,24.1-28.4c6.7-6,10.4-9.4,11.1-10.1
				c5.7-4.2,12.3-7.7,19.9-10.3c7.6-2.7,14.8-3.8,21.5-3.4l141,0c9.9,0,18,3.2,24.4,9.5c4.6,4.6,7.3,10,8.2,16.2
				c0.9,6.2,0.6,12.5-0.8,18.8l-50.9,164.4c-2.5,8.8-7.8,15.9-15.9,21.2c-8.1,5.3-16.8,8-26,8h-52c-1.4,0-3.2,0.5-5.3,1.6
				c-2.1,1.1-3.7,2.1-4.8,3.2c-6,8.8-11.3,20.5-15.9,35c-4.2,12.7-8,29.6-11.4,50.6c-3.4,21-4.9,47.6-4.5,79.8
				c-0.4,32.2,1.1,58.9,4.5,80.3c3.4,21.4,7.1,38.4,11.1,50.9s7.9,21.5,11.4,26.8l5.3,8c0.7,0.7,2.1,1.6,4.2,2.7
				c2.1,1.1,3.9,1.6,5.3,1.6l61-0.5c12,0.7,22.3,5.3,30.8,13.8c6,6,9.7,11.8,11.1,17.5l0.5,0.5l41.9,162.8
				C398.1,876.1,396.7,886.3,391,894.8z"/>
		</g>
	</g>
	<g>
		<path d="M476.6,460.8c0-17.6-7.6-26.4-22.9-26.4c-8.6,0-14.9,3-18.9,9c-4,6-6.2,15.4-6.6,28h-53.8c1.3-27.7,9.7-48.6,25.1-62.5
			c15.5-14,35-21,58.7-21c24.7,0,43.4,6.2,55.9,18.7c12.6,12.5,18.9,28.7,18.9,48.7c0,22.1-8.5,43.8-25.5,64.9
			c-17,21.2-37.3,39.1-60.9,53.7h89.9v44.5H374.1v-41.3C442.4,528.4,476.6,489.6,476.6,460.8z"/>
		<path d="M559.7,579.1V533l104.1-142.8h59.3v140.9h27.4v48h-27.4V621h-55.8v-41.9H559.7z M671.9,454.1l-56.1,77h56.1V454.1z"/>
	</g>
</g>
</svg>
