<?xml version="1.0" encoding="utf-8"?>
<!-- Generator: Adobe Illustrator 21.1.0, SVG Export Plug-In . SVG Version: 6.00 Build 0)  -->
<svg version="1.1" id="Layer_1" xmlns="http://www.w3.org/2000/svg" xmlns:xlink="http://www.w3.org/1999/xlink" x="0px" y="0px"
	 viewBox="0 0 50 50" style="enable-background:new 0 0 50 50;" xml:space="preserve">
<style type="text/css">
	.st0{fill:#12443E;}
	.st1{fill:#12443D;}
</style>
<g>
	<path class="st0" d="M0,96.2h39.3L29.4,86l3.9-4L50,99l-16.7,17l-3.9-4l9.9-10.2H0V96.2z"/>
</g>
<g>
	<path class="st1" d="M45,5c1.4,0,2.6,0.5,3.6,1.5c1,1,1.5,2.2,1.5,3.6v30c0,1.4-0.5,2.6-1.5,3.6c-1,1-2.2,1.5-3.6,1.5H5
		c-1.4,0-2.6-0.5-3.6-1.5c-1-1-1.5-2.2-1.5-3.6V10c0-1.4,0.5-2.6,1.5-3.6C2.4,5.5,3.6,5,5,5H45z M45,15v-5l-20,12.5L5,10v5
		l19.9,12.4L45,15z"/>
</g>
</svg>
